<svg xmlns="http://www.w3.org/2000/svg" viewBox="0 0 2040.9 123"><defs><style>.cls-1{fill:#1c1b1a;}.cls-2,.cls-3{fill-rule:evenodd;}.cls-3{fill:#fff;}.cls-4{fill:none;}</style></defs><g id="Layer_2" data-name="Layer 2"><g id="Layer_1-2" data-name="Layer 1"><g id="Layer_2-2" data-name="Layer 2"><g id="Layer_1-2-2" data-name="Layer 1-2"><path class="cls-1" d="M1513.59,80.38c0,.81,0,1,.54,1.49l3.07,3V85h-13.59V79.21a9.45,9.45,0,0,1-9,6.31c-7,0-12-5.53-12-15.71,0-9.53,5.47-15.89,13.15-15.89a8,8,0,0,1,7.89,4.94V46.05a1.62,1.62,0,0,0-.09-.87,1.54,1.54,0,0,0-.53-.68l-2.91-2.84v-.13l13.53-1.6Zm-10-1.85V59.41a5,5,0,0,0-4-1.91c-3.3,0-6.49,3-6.49,12,0,8.4,2.76,11.37,6.18,11.37a5.36,5.36,0,0,0,4.33-2.34Zm19,6.49V59.21a1.61,1.61,0,0,0-.08-.84,1.68,1.68,0,0,0-.46-.71l-3-3.13V54.4h13.58V80.58c0,.81,0,1,.55,1.49l3,2.84V85Zm-.49-40a5.47,5.47,0,1,1,5.47,5.53A5.47,5.47,0,0,1,1522.1,45Zm47.17,35.36c0,.81,0,1,.55,1.55l3.06,3V85h-13.66V78.4a9.89,9.89,0,0,1-9.32,7.12c-6.05,0-9.3-4.46-9.3-12.91,0-4.07,0-8.53.13-13.55a1.63,1.63,0,0,0-.07-.82,1.6,1.6,0,0,0-.48-.67l-3-3V54.4h13.48V71.23c0,5.53.8,9.22,4.23,9.22a5.54,5.54,0,0,0,2.56-.83,5.46,5.46,0,0,0,1.85-2V59.23a1.72,1.72,0,0,0-.08-.84,1.88,1.88,0,0,0-.47-.71l-3-3.15V54.4h13.58ZM1615.51,85c0-1,.18-13.68.18-16.59,0-5.53-.85-9.35-4.7-9.35a6,6,0,0,0-4.83,2.66,22.28,22.28,0,0,1,.54,5.28c0,3.83-.12,8.72-.18,13.61a1.63,1.63,0,0,0,.07.82,1.6,1.6,0,0,0,.48.67l3.06,2.84v.13h-13.71c0-.92.18-13.68.18-16.6,0-5.62-.85-9.34-4.65-9.34a5.37,5.37,0,0,0-2.61.78,5.47,5.47,0,0,0-1.91,2v18.8c0,.81,0,1,.55,1.5l3,2.83v.13H1577.4V59.3a1.61,1.61,0,0,0-.08-.84,1.75,1.75,0,0,0-.46-.71l-3-3.22V54.4h13.58V61a9.75,9.75,0,0,1,9.74-7.06c4.52,0,7.58,2.54,8.88,7.37a10.57,10.57,0,0,1,10.21-7.37c6,0,9.48,4.52,9.48,13,0,4.08-.13,8.72-.18,13.61a1.42,1.42,0,0,0,.09.84,1.46,1.46,0,0,0,.53.65l3,2.84V85ZM1444.9,81l4,3.89V85h-20.45v-.13l4.11-3.87a1.67,1.67,0,0,0,.47-.67,1.53,1.53,0,0,0,.07-.82V54.64a25.28,25.28,0,0,1,.19-3.69L1419.5,85.52h-.16l-14.28-31.8c-.31-.8-.4-.85-.6-1.39V73.19a7.32,7.32,0,0,0,.67,4.07l5.77,7.63V85h-15.27v-.13l5.75-7.65a7.35,7.35,0,0,0,.67-4v-23a4.41,4.41,0,0,0-1-3.22L1397,41.67v-.13h14.58l12.22,26.94,10.76-26.95h14.3v.13l-4,4.52a1.62,1.62,0,0,0-.53.68,1.68,1.68,0,0,0-.09.86V79.51A1.48,1.48,0,0,0,1444.9,81Zm16-12.46v.13c0,7.89,4,11.06,8.76,11.06A9.92,9.92,0,0,0,1478.9,74h.12c-1.64,7.8-6.42,11.49-13.56,11.49-7.72,0-15-4.7-15-15.6,0-11.45,7.29-16,15.35-16,6.49,0,13.4,3.1,13.4,13v1.59Zm0-1.54h9V65.4c0-8.11-1.66-10.27-4.15-10.27-3,0-4.87,3.23-4.87,11.87Z"/><path class="cls-2" d="M1058.44,41.08a4.41,4.41,0,0,1,3.15,1.44c1.15.86,1.15,2.58.86,4a3.88,3.88,0,0,1-2,2.87,6.23,6.23,0,0,1-2.88.86V55.7l2.59,2.3-2.59,2v7.75a14.25,14.25,0,0,0,4.33-5.14l.29-.57A12.14,12.14,0,0,1,1061,67.5a8.74,8.74,0,0,1-4,4.59,12.13,12.13,0,0,1-8,1.43,12.6,12.6,0,0,1-7.76-5.45,12.35,12.35,0,0,1-2-7.18,13.29,13.29,0,0,1,8.33-11.2,3.09,3.09,0,0,1,1.72-.29,2.64,2.64,0,0,0-1.43.87,8.52,8.52,0,0,0-3.16,4l8.61-3.74V62.61l-6.89,3.45c.86,1.15,3.16,2.87,5.17,2.87a7.35,7.35,0,0,0,5.74-1.15V60l-2.87-2,2.87-2.3V50.27a42.57,42.57,0,0,1-4.3-1.15c-1.73-.29-6.9-1.72-7.47-1.72a2.67,2.67,0,0,0-2.59.29,2.23,2.23,0,0,0-.66,2.31,1.5,1.5,0,0,0,.55,1.13,2.32,2.32,0,0,1-.85-.29,3.85,3.85,0,0,1-1.73-3.15,5.24,5.24,0,0,1,2.3-4.6,5.5,5.5,0,0,1,4.31-1.15c2.58.29,6,1.73,9.19,2.59a3.34,3.34,0,0,0,2.87-.29c.29-.29,1.15-.86.57-1.72-.86-1.15-2-1.15-3.15-1.44A2.4,2.4,0,0,1,1058.44,41.08ZM1048.1,64.91V53.14l-3.45,1.72a13.53,13.53,0,0,0-.86,4.88,14.82,14.82,0,0,0,2.3,6Zm43.65-12.34s-2.88,1.72-4.6,2.87l-4,2v11.2l-1.74,1.16.28.29,1.44-1.15,4.88,4.3,8.62-6.6-.29-.29-4.6,3.74-4-3.74V65.2l7.76-5.74Zm0,9.19-4,2.87V55.15Zm-22.11,15.79a10.84,10.84,0,0,0,5.45-.86,7.49,7.49,0,0,0,3.73-6.89l.29-4V56.87l1.44-1.14v-.29l-1.73,1.15-3.73-4-4.88,4V42.52l-6,4.59c.28.29,1.15.29,1.15,1.73V68.65l-2.59,1.72.29.29,1.15-.86,3.41,3.2,5.46-4.31-.29-.29-1.15,1.15-1.43-1.44v-11l1.43-1.43,2.59,2.87v9.47c0,2.59,0,5.75-1.44,7.18A5.58,5.58,0,0,1,1069.64,77.55Zm37.61-1.15c-2.29-.28-3.16-1.43-3.16-2.58,0-.58.87-2,2-2,1.43-.29,2.58.28,3.73,1.72L1115,67.8h-.29l-1.44,1.43a8.46,8.46,0,0,0-5.16-2.87v-17L1121,73.24a1.23,1.23,0,0,0,.86.29.29.29,0,0,0,.29-.27V49.41a12.29,12.29,0,0,0,3.46-1.41,4.75,4.75,0,0,0,1.15-5.74,3,3,0,0,1-2.58,2.58,5.07,5.07,0,0,1-3.45-1.72l-4.85,5.71.29.29,1.43-1.72a6.55,6.55,0,0,0,4.31,2V63.19l-9.79-17.52c-.86-1.43-2-2.87-4.31-2.87a4.61,4.61,0,0,0-4.31,4,5.4,5.4,0,0,0,0,2.59s.29-2.3,1.73-2.3,2,1.15,2.58,2v5.17c-1.43,0-4.88,0-4.88,3.73a5.37,5.37,0,0,0,1.44,3.16,3.31,3.31,0,0,0,1.72.58,1.61,1.61,0,0,1-.86-1.73c.29-1.15,2.58-1.15,2.58-.86v7.18c-1.15,0-4.31,0-6,2.87a4.8,4.8,0,0,0,.29,5.17A4.7,4.7,0,0,0,1107.25,76.4Zm27.57-23.83s-2.58,1.72-4.59,2.87l-4,2v11.2l-1.72,1.15.29.29,1.72-1.15,4.6,4.3,8.61-6.6-.29-.29-4.59,3.74-3.74-3.74V65.2l7.47-5.74Zm0,9.19-3.73,2.87V55.15Zm11.77,11.48-4.3-3.44-1.73,1.43-.28-.28,2-1.44V60c0-4-3.74-2.87-3.45-7.18,0-1.72,1.72-3.16,2.87-3.73a7.5,7.5,0,0,1,2-.29,2.59,2.59,0,0,0-1.43,2.59c.57,2.3,4.59,2.3,4.88,5.45V67.78l2.87,2.3.86-.57V57.73l-1.72-1.43,4-3.74L1156.9,56l-1.43,1.44V67.78l3.73,2.87.57-.28V57.73l-1.72-1.43,4-3.74,4,3.16,1.44-1.44.28.29-3.44,3.16V67.78l-8.9,5.46-4.53-3.45Zm180.92-20.67s-2.88,1.72-4.6,2.87l-4,2v11.2l-1.72,1.15.29.29,1.42-1.14,4.88,4.3,8.62-6.6-.29-.29-4.59,3.74-4-3.74V65.2l7.75-5.74Zm0,9.19-4,2.87V55.15Zm-39.61-4.31h.28l1.44-1.15,2.3,2.58v9.19l-1.15.87,3.73,4.3,3.73-3.73-1.43-1.72V56.87l.86-.86,2.58,3.16v9.19l-.86.86,3.43,3.78,3.73-3.45-1.43-1.44V56.87L1306,56l2.87,3.16v8.9l-.86.87,3.73,4.3,5.19-4.88-.29-.29-1.14,1.15-2-2V56.87l1.72-1.43v-.29l-2,1.44-3.45-3.74-4.88,3.74-3.45-3.74-4.88,3.74-3.44-3.74Z"/><path class="cls-2" d="M1277.54,57.16,1279,56l2,2.59V68.94l-1.44,1.43.29.29,1.43-1.44,3.45,4,4.88-4.3-.29-.29-1.39,1.17-2-2.3V57.16l1.72-1.43v-.29l-1.72,1.43-3.45-4Zm1.43-8.9,3.45-3.16,3.16,3.16-3.68,3.45Z"/><path class="cls-2" d="M1273.81,41.08a5,5,0,0,1,3.44,1.44,4.74,4.74,0,0,1,.86,4,4.86,4.86,0,0,1-2,2.87,6.19,6.19,0,0,1-2.87.86V55.7l2.58,2.3-2.58,2v7.75a14.38,14.38,0,0,0,4.31-5.17l.29-.57a12.14,12.14,0,0,1-1.15,5.46,10.25,10.25,0,0,1-4,4.59,11.36,11.36,0,0,1-15.63-3.71l-.17-.29a12.35,12.35,0,0,1-2-7.18c0-5.17,4-9.48,8.33-11.2a3,3,0,0,1,1.68-.28c-.58,0-.87.29-1.44.87a8.65,8.65,0,0,0-3.16,4l8.6-3.72V62.61l-6.9,3.45c.86,1.15,3.16,2.87,5.17,2.87a6.93,6.93,0,0,0,5.46-1.15V60L1270,58l2.59-2.3V50.27c-1.44-.29-3.16-.86-4.31-1.15-1.44-.29-6.61-1.72-7.47-1.72a2.21,2.21,0,0,0-2.29.29,3.23,3.23,0,0,0-.87,2.29,4.06,4.06,0,0,0,.87,1.15,2.24,2.24,0,0,1-.87-.29,3.88,3.88,0,0,1-1.72-3.15,5,5,0,0,1,2-4.6,6.5,6.5,0,0,1,4.6-1.15c2.58.29,6,1.73,8.9,2.59,1.43.28,2.3.28,3.16-.29a1.23,1.23,0,0,0,.28-1.72h0c-.57-1.15-1.72-1.15-2.87-1.44A1.8,1.8,0,0,1,1273.81,41.08Zm-10,23.83V53.14l-3.45,1.72a8.75,8.75,0,0,0-.86,4.88,11.58,11.58,0,0,0,2.3,6Zm72.94,9.77c-.58.29-2.88-.29-3.45-2.87s1.15-4,3.73-6.9l-3.16-2.58V56.87a23,23,0,0,0,4-2l3.45-2.29s1.43,1.72,2.87,1.43c2.3-.28,2.3-2,2-2.29.58.57,1.44,2.58-2.58,7.46l3.45,2.59v6.89a56.69,56.69,0,0,0-7.47,4.59s-2-2.58-3.74-1.43c-1.45.85-.88,2.28.85,2.86Zm-2.88-5.17a5,5,0,0,1,4.89-2.3,5.25,5.25,0,0,1,3.73,3.45V63.77l-2-1.73c-2.07,2.3-6.09,5.46-6.67,7.47Zm4.6-14.65v5.46l1.67,1.68s4-3.16,5.46-6.31c0,0-1.72,2.58-4.31,1.72a5,5,0,0,1-2.87-2.55Zm-125.57,2.3,1.46-1.16h.29l-1.43,1.44V68.36s-2.88,1.44-4.6,2.59l-4,2.29-5.17-4.3-1.15,1.14H1198l1.43-1.43V56.87a34.36,34.36,0,0,0,4.31-2c1.72-1.14,3.73-2.29,3.73-2.29Zm-8.61,9.77,4,3.73V58.88l-4-3.73ZM1223,56l3.16-3.16a3.52,3.52,0,0,0,.86.58,2.17,2.17,0,0,0,2,.29c.57-.29.57-.58,1.15-.87,0,2.59-1.15,4.31-2.59,4.89-.86.28-2.58.86-4.59-1.44V68.07l2.3,1.73,1.43-1.15h.29l-5.17,4.59-4-3.73L1216.38,71l-.29-.29,2-2v-10l-1.44-2.29-1.43,1.15h-.32l5.17-4.6Zm13.5,5.17,5.74-8.61a4.87,4.87,0,0,0,2.3,1.15c1.72.57,3.44-1.15,3.44-1.15-.29,2.29-1.43,4.88-4,5.17-2,.28-4-1.44-4-1.44l-.29.86,8,12.35,1.72-1.44.28.29-5.82,4.89Z"/><path class="cls-2" d="M1231.59,49.69c0-2-.86-3.15-2-3.15l6.61-4.31V67.79l1.7,1.72,1.15-1.15.29.29-5.17,4.59-3.45-3.44-1.44,1.43L1229,71l2.58-2.3Zm-54-.57c0-1.72-.86-2.58-2-2.58-1.73-.29-2,2.29-2,2.29a4.35,4.35,0,0,1,1.14-3.44,5.15,5.15,0,0,1,4.89-1.72,4.19,4.19,0,0,1,3.44,4.3V71.81a5.92,5.92,0,0,0,1.44.28,5,5,0,0,0,1.43.29V43.66h.29v4l5.17-4.3,4,3.44,1.72-1.43h.29l-2,1.72V69.22a4,4,0,0,1-1.71,3.78c-2.87,2-6.61-.29-10-.57-2.3-.58-6-.86-7.18,1.43a2.12,2.12,0,0,0,.86,2.59c2.3,1.43,12.06-2.59,15.51-.86C1196,77,1196,79,1195.46,80.76c-.86,2.87-4.59,3.44-4.59,3.44s2-1.15,1.43-2.87c-.29-.86-.86-1.15-2.87-.86-4.31.58-9.19,2.58-12.63,1.15a5.2,5.2,0,0,1-2.9-5.22c0-3.16,3.74-4.31,3.74-4.31V60.61a2.36,2.36,0,0,0-2.59.57,1.52,1.52,0,0,0,.8,2l.06,0a3.51,3.51,0,0,1-2.32-1.18,3.69,3.69,0,0,1,0-4.3c.86-1.44,2.29-1.73,4-1.73Zm8.61,23.55a3.36,3.36,0,0,0,2.59-.58,2.38,2.38,0,0,0,1.14-2.29V60.89a2.11,2.11,0,0,0-1.72-1.15,2.91,2.91,0,0,0-2,1.15Zm3.74-23.55-2.3-2-1.44.86V56.3a3.17,3.17,0,0,0,2,.86,2.17,2.17,0,0,0,1.73-.86Zm0,7.75a2.52,2.52,0,0,1-1.73.58,3.91,3.91,0,0,1-2-.58v3.45a3.17,3.17,0,0,1,2-.86,2.17,2.17,0,0,1,1.73.86Zm36.18,24.42c0-2,0-2-.86-2.3H1225V78.7h7.47c0,.29.28,1.43.28,2,0,.29-.28.29-.57.29-.29-.86-.29-1.44-1.15-1.72h-2.87c-.58,0-.58,0-.58.57v3.44c0,.29,0,.29.58.29h2.58A1,1,0,0,0,1231,83v-.58c.29-.29.58-.29.58,0v3.16c0,.29-.29.29-.58,0V85a.61.61,0,0,0-.57-.58c-.29,0-.58-.29-1.15-.29h-1.15c-.58,0-.58.29-.58.58V87c0,1.15,0,1.72.29,2a7.11,7.11,0,0,0,2,.29c1.44,0,2,0,2.3-.29a15.27,15.27,0,0,0,1.15-1.73.29.29,0,0,1,.29.27v0a6.55,6.55,0,0,1-.58,2.3h-8.3v-.58h.58c.86,0,.86-.28.86-2Zm9.19,2.86a1.52,1.52,0,0,0-1.15-.57h-.26V83h3.16v.58h-.29c-.57,0-.57.29-.28.57l.86,1.15a.29.29,0,0,0,.27.29h0a14.79,14.79,0,0,0,.86-1.44c.29-.28.29-.57,0-.57h-.28V83h2.58v.58h-.29a1,1,0,0,0-.86.29,18.66,18.66,0,0,0-1.43,2c-.29.28-.29.28,0,.57l1.43,2.3c.29.57.58.57,1.15.57h.29v.58h-3.45v-.58h.58c.57,0,.57,0,.28-.28l-.86-1.44c-.28-.29-.28-.29-.28-.57-.29.28-.29.28-.29.57l-.86,1.15c-.29.57-.29.57,0,.57h.29c.28.29.28.58,0,.58h-2.3c-.29,0-.29-.29-.29-.58h.58c.28,0,.57,0,.86-.57.28-.29,1.15-1.44,1.43-1.72,0-.29.29-.29,0-.58Zm8.33,1.15c0-.57,0-.86.28-1.15a1.71,1.71,0,0,1,1.44-.57c1.43,0,2.3,1.44,2.3,2.87,0,1.72-.87,3.16-2.3,3.16a2.2,2.2,0,0,1-1.15-.57c-.29-.29-.57-.29-.57-.87Zm-1.15,6.9c0,1.14,0,1.43-.58,1.43l-.57.29a.29.29,0,0,0,.27.29h3.46v-.29l-.86-.29c-.58,0-.58-.29-.58-1.43V90.47a1,1,0,0,1,.29-.57c.29,0,.58.29.86.29a4.08,4.08,0,0,0,4.31-3.84,3.68,3.68,0,0,0,0-.47,2.72,2.72,0,0,0-2.53-2.88,1.71,1.71,0,0,0-.32,0,6.09,6.09,0,0,0-2.3.57h-.29v-.86a9.87,9.87,0,0,0-1.72.86v.29c.57.29.57.29.57,1.15Zm9.2-7.2h-.28a2.15,2.15,0,0,1,2-1.73,1.06,1.06,0,0,1,1.15,1,.61.61,0,0,1,0,.19v.29c-.29.29-.58.29-1.73.29Zm3.16.57c.58,0,.86,0,.86-.29.29,0,.29,0,.29-.28a2.33,2.33,0,0,0-2.58-2c-2,0-3.16,1.73-3.16,3.74a3.47,3.47,0,0,0,.58,2.3,3.66,3.66,0,0,0,2.58,1.15,3.07,3.07,0,0,0,2.58-1.73l-.29-.29A1.7,1.7,0,0,1,1254,89c-1.72,0-2.58-1.44-2.58-3.16,0-.29,0-.29.28-.29Zm7.47-2.3c.29,0,.29.29.29.58a1,1,0,0,1-.29.57H1262a2,2,0,0,0-1.72-.86A2.35,2.35,0,0,0,1258,86a1.21,1.21,0,0,0,0,.19,2.64,2.64,0,0,0,2.41,2.85h.18c1.14,0,1.72-.29,2-.86a.27.27,0,0,1,.28.26v0a3.16,3.16,0,0,1-2.87,1.73,3.31,3.31,0,0,1-2.3-.86,3.55,3.55,0,0,1-.86-2.59c0-2,1.15-3.73,4-3.73.32,0,1.18,0,1.47.32Zm3.73.58c-.28,0-.28,0-.28.28v3.16c0,1.15,0,2,1.14,2h.29a1.06,1.06,0,0,0,.58-.28s.28.28,0,.28a2.43,2.43,0,0,1-1.73.87c-1.43,0-1.72-.87-1.72-2V84.44c0-.57,0-.57-.29-.57h-.57v-.29c.57-.29.86-.58,1.15-.58a1.52,1.52,0,0,0,.57-1.15c.29,0,.29,0,.58.29v.58c0,.28,0,.28.28.28h1.73c.28.29.28.87,0,.87Zm9.19,0c-.29,0-.29,0-.29.28v3.16c0,1.15,0,2,1.15,2h.58L1277,89a.29.29,0,0,1,.29.27h0a2.45,2.45,0,0,1-1.72.87c-1.43,0-1.72-.87-1.72-2V84.44c0-.57,0-.57-.29-.57h-.62s-.28-.29,0-.29a4.19,4.19,0,0,1,.86-.58,3.62,3.62,0,0,0,.86-1.15.29.29,0,0,1,.29.27v.6c0,.28,0,.28.29.28h2v.87Zm3.74-3.74c0-.86,0-.86-.58-1.15l-.29-.28v-.29a7.4,7.4,0,0,0,2-.58v6a3.21,3.21,0,0,1,2.3-.86c1.72,0,2.3.86,2.3,2v2.87c0,1.15,0,1.43.57,1.43h.29c.29.29.29.58,0,.58h-3.16v-.58h.29c.57,0,.57-.28.57-1.43v-2.3c0-1.15-.28-2-1.43-2a2.21,2.21,0,0,0-1.44.57c-.29.29-.29.29-.29.87v2.87c0,1.15,0,1.43.58,1.43h.29c.28.29.28.58,0,.58h-3.16v-.58h.29c.86,0,.86-.28.86-1.43V80.11Zm9.19,4.89h-.27a2.15,2.15,0,0,1,2-1.73,1.06,1.06,0,0,1,1.15,1,.61.61,0,0,1,0,.19v.29c-.29.29-.58.29-1.73.29Zm3.15.57c.58,0,.87,0,.87-.29.28,0,.28,0,.28-.28a2.32,2.32,0,0,0-2.57-2c-2,0-3.16,1.73-3.16,3.74a3.53,3.53,0,0,0,.57,2.3,3.7,3.7,0,0,0,2.59,1.15,3.07,3.07,0,0,0,2.58-1.73l-.28-.29a1.72,1.72,0,0,1-1.73.87c-1.72,0-2.58-1.44-2.58-3.16,0-.29,0-.29.29-.29Zm5.17-6.57v-.3h3.74c.28,0,.28.28,0,.28h-.33a1,1,0,0,0-.58.29,7.61,7.61,0,0,0,.86,2.3c.87,2,2,4.31,2.88,6.32.57-.86.86-1.73,1.43-2.59a1.28,1.28,0,0,1,.29-.86l-.29-.28-1.72-4.31c-.29-.29-.58-.86-1.15-.86h-.29c-.28,0-.28-.29,0-.29h3.45c.29,0,.29.29,0,.29h-.29c-.57,0-.57.29-.29.86a33.55,33.55,0,0,1,1.15,3.16,9,9,0,0,1,1.15-2.3c.58-1.43.29-1.72,0-1.72h-.57c-.29-.29,0-.29,0-.29h3.16s.28.29,0,.29h-.58c-.57,0-.86.86-1.15,1.43a28.4,28.4,0,0,0-1.43,2.87v.87c.57,1.14,1.14,2.58,1.72,3.73.57-1.15.86-2.3,1.44-3.45.28-.86,1.43-3.15,1.43-3.44a6.13,6.13,0,0,0,.58-1.72,1,1,0,0,0-.58-.29h-.58V78.7h3.16c.29,0,.29.29,0,.29h-.2c-.87,0-.87.57-2,2.87l-1.15,2.87a30.26,30.26,0,0,0-2,5.46h-.58a43.23,43.23,0,0,0-2-4.89,24.75,24.75,0,0,0-2,4.89h-.58a29.71,29.71,0,0,0-1.14-2.88c-1.15-2.29-2-4.59-3.16-7.18-.29-.57-.57-1.14-1.15-1.14Zm21,7.76c0,1.15-.29,2.87-1.73,2.87-1.72,0-2.3-1.72-2.3-3.16,0-2,.87-3.16,2-3.16,1.44,0,2,2,2,3.43Zm-2-3.74a3.48,3.48,0,0,0-3.45,3.45,3.39,3.39,0,0,0,3,3.72,2.82,2.82,0,0,0,.41,0,3.56,3.56,0,0,0,3.41-3.7v-.06a3.32,3.32,0,0,0-3.18-3.45h-.27Zm5.74,2c0-.87,0-.87-.29-1.15h-.29v-.29c.29-.29,1.44-.58,1.73-.86v1.15h.28a2.48,2.48,0,0,1,1.73-.86c.57,0,.86.28.86.57a.91.91,0,0,1-.86.86.29.29,0,0,1-.29-.27v0c-.29,0-.58-.28-.86-.28s-.29.28-.58.57a3,3,0,0,0-.28,1.15v2.3c0,1.15.28,1.43.86,1.43h.57v.58h-3.44c-.29,0-.29-.29,0-.58h.28c.58,0,.58-.28.58-1.43Zm6.6,2.87c0,1.15,0,1.43.58,1.43h.49v.58h-3.45v-.58h.58c.57,0,.57-.28.57-1.43V80.13c0-.86,0-.86-.57-1.15V78.7c-.29,0-.29-.29,0-.29a5.82,5.82,0,0,0,1.72-.58V87.89Zm7.47.28c0,.29,0,.58-.29.58a2.2,2.2,0,0,1-1.15.57c-1.72,0-2.58-1.43-2.58-3.16,0-1.43.86-2.87,2.3-2.87.57,0,1.15.58,1.43.86,0,.29.29.29.29.58Zm1.15-8.32v-2a7,7,0,0,1-2,.57v.29l.28.29c.58.29.58.29.58,1.14v2.59c0,.29,0,.29-.29.29h-1.15a3.7,3.7,0,0,0-4,3.39c0,.11,0,.23,0,.34A3.46,3.46,0,0,0,1333,90.2a2.62,2.62,0,0,0,2-.86h.29v.86a6.84,6.84,0,0,0,2.3-.58c.29,0,.29-.28,0-.57a.88.88,0,0,1-.58.29c-.57,0-.57-.58-.57-2Zm5.74-.58a.28.28,0,0,1,.27-.29h0a1.06,1.06,0,0,1,1.15,1,.61.61,0,0,1,0,.19c0,.58-.29,1.15-.87,1.15s-.57,0-.57-.29Zm-.86,3.16c0,.86,0,.86-.29.86l-.28.29h2l-.28-.29c-.29,0-.29,0-.29-.86v-.57c0-.29,0-.29.29-.29h.28a4.22,4.22,0,0,0,.86,1.15,1.48,1.48,0,0,0,1.44,1.15.29.29,0,0,0,.29-.27v0a.29.29,0,0,1-.29-.27v0c-.58-.29-.86-.86-1.44-1.72v-.29c.29-.29.86-.57.86-1.15,0-1.15-1.14-1.43-1.72-1.43h-2V79h.29c.29,0,.29.29.29,1.15v2.28Zm1.43,3.16a4.48,4.48,0,0,0,4.6-4.3,4.31,4.31,0,0,0-4.29-4.33h-.31a4.07,4.07,0,0,0-4.3,3.82,4.17,4.17,0,0,0,0,.5,4.22,4.22,0,0,0,4.14,4.3h.16Zm-3.73-4.3a3.88,3.88,0,0,1,3.73-4,3.71,3.71,0,0,1,3.75,3.67c0,.11,0,.22,0,.33A3.62,3.62,0,0,1,1343,85h-.23a3.81,3.81,0,0,1-3.73-3.71Z"/><path class="cls-2" d="M1937.72,91.71V33.29h-39V91.71Zm40.58,0V33.29h-37.8V91.71Zm41.73,0V33.29h-39V91.71Z"/><path class="cls-3" d="M1900.62,49.17V62h1.28c.69-7.89,4.29-11.13,7.88-11.13h3.83V88.12h-5.22v1.74H1928V88.12h-5.21V50.91h3.82c3.6,0,7.19,3.24,7.88,11.13h1.28V49.17Zm76,40.69V76.53h-1.22c-.7,8.35-4.29,11.59-7.89,11.59h-11.12V50.91h5.21V49.17H1942v1.74h5.22V88.12H1942v1.74Zm39.88-41.39h-1.27l-2.67,2.78a14.47,14.47,0,0,0-9.85-3.36c-6.26,0-18.67,4.41-19.13,20.64-.41,14.48,11.13,21.33,18.78,21.33a17.07,17.07,0,0,0,10.2-3.48l2.67,2.55h1.27V77.8h-1.27c-.47,2.44-4.52,10.44-12.17,10.44s-10.27-4.24-10.5-19.94,3.59-18.9,10.34-18.9c5.57,0,10.09,3.48,12.41,10.2h1.27Z"/><path class="cls-2" d="M1716.62,88.6c-5.66,0-11.06-3.17-14.56-7.49a27.91,27.91,0,0,1-5.93-17.55,27.89,27.89,0,0,1,5.47-16.92c3.64-4.72,9.12-8.1,15.21-8.1,5.6,0,11,3.21,14.41,7.47a28.88,28.88,0,0,1,.48,34.47C1728.09,85.17,1722.65,88.6,1716.62,88.6Zm-56.79-49h17v.48h-4.18l12.7,34.78,10.72-34.78h-4.17V39.6h9.18v.48H1697l-15.1,48.06-17.59-48.08h-4.48Zm114.61-.84v16.7h-.39a29.85,29.85,0,0,0-3.5-9.39c-2.1-3.4-5.44-7.21-9.79-7.21-10,0-10.92,17.93-10.92,24.78,0,6.12.49,12.43,2.71,18.17,1.56,4,3.81,6,8,6a10.31,10.31,0,0,0,8.62-4.56,4.51,4.51,0,0,0,.49-2.45V67.86h-4.37v-.5h16v.5h-3.75V87.18h-.33a5,5,0,0,0-4.31-2.61,8.25,8.25,0,0,0-3.93,1.16l-1.09.59a18,18,0,0,1-7.5,1.87c-12.42,0-19-13.24-19-24.23,0-8,3.06-16.62,9.57-21.64a17,17,0,0,1,10.22-3.92,11.7,11.7,0,0,1,4.28,1l1,.39a10.72,10.72,0,0,0,3.61.82c1.52,0,2.88-1,4.06-1.87Zm4.77.84h17.08v.49h-4.53V77.14c0,5.81,6,9.34,11.21,9.34,5.63,0,10.38-3.92,10.38-9.67V40.06H1808v-.49h44.07v17.2h-.33c-.51-4.55-1.38-9.22-4.51-12.77s-7.47-3.94-11.9-3.94h-4.77V62.18a27.42,27.42,0,0,0,3,.17c6,0,7.56-4.13,7.82-9.23h.44v19.4h-.44c-.75-4.64-2.8-9.61-8.24-9.61-.86,0-1.7.06-2.55.13V86.69h7.15a14.59,14.59,0,0,0,10-4.2,15.33,15.33,0,0,0,4.34-8.17,46.2,46.2,0,0,0,.52-5.25h.38V87.18h-34.44v-.49h4V40.06h-8.46V77c0,7.62-7.25,11-14,11-7.72,0-16.17-3.78-16.17-12.56V40.06h-4.67Z"/><rect class="cls-4" x="1020.9" width="1020" height="123"/></g></g><g id="Layer_2-3" data-name="Layer 2"><g id="Layer_1-2-3" data-name="Layer 1-2"><path class="cls-1" d="M492.69,80.38c0,.81,0,1,.54,1.49l3.07,3V85H482.71V79.21a9.45,9.45,0,0,1-9,6.31c-7,0-12-5.53-12-15.71,0-9.53,5.47-15.89,13.15-15.89a8,8,0,0,1,7.89,4.94V46.05a1.62,1.62,0,0,0-.09-.87,1.54,1.54,0,0,0-.53-.68l-2.91-2.84v-.13l13.53-1.6Zm-10-1.85V59.41a5,5,0,0,0-4-1.91c-3.3,0-6.49,3-6.49,12,0,8.4,2.76,11.37,6.18,11.37a5.36,5.36,0,0,0,4.33-2.34Zm19,6.49V59.21a1.61,1.61,0,0,0-.08-.84,1.68,1.68,0,0,0-.46-.71l-3-3.13V54.4h13.58V80.58c0,.81,0,1,.55,1.49l3,2.84V85Zm-.49-40a5.47,5.47,0,1,1,5.47,5.53A5.47,5.47,0,0,1,501.2,45Zm47.17,35.36c0,.81,0,1,.55,1.55l3.06,3V85H538.32V78.4A9.89,9.89,0,0,1,529,85.52c-6,0-9.3-4.46-9.3-12.91,0-4.07,0-8.53.13-13.55a1.63,1.63,0,0,0-.07-.82,1.6,1.6,0,0,0-.48-.67l-3-3V54.4h13.48V71.23c0,5.53.8,9.22,4.23,9.22a5.54,5.54,0,0,0,2.56-.83,5.46,5.46,0,0,0,1.85-2V59.23a1.72,1.72,0,0,0-.08-.84,1.88,1.88,0,0,0-.47-.71l-3-3.15V54.4h13.58ZM594.61,85c0-1,.18-13.68.18-16.59,0-5.53-.85-9.35-4.7-9.35a6,6,0,0,0-4.83,2.66A22.28,22.28,0,0,1,585.8,67c0,3.83-.12,8.72-.18,13.61a1.63,1.63,0,0,0,.07.82,1.6,1.6,0,0,0,.48.67l3.06,2.84v.13H575.52c0-.92.18-13.68.18-16.6,0-5.62-.85-9.34-4.65-9.34a5.37,5.37,0,0,0-2.61.78,5.47,5.47,0,0,0-1.91,2v18.8c0,.81,0,1,.55,1.5l3,2.83v.13H556.5V59.3a1.61,1.61,0,0,0-.08-.84,1.75,1.75,0,0,0-.46-.71l-3-3.22V54.4h13.58V61a9.75,9.75,0,0,1,9.74-7.06c4.52,0,7.58,2.54,8.88,7.37a10.57,10.57,0,0,1,10.21-7.37c6,0,9.48,4.52,9.48,13,0,4.08-.13,8.72-.18,13.61a1.42,1.42,0,0,0,.09.84,1.46,1.46,0,0,0,.53.65l3,2.84V85ZM424,81l4,3.89V85H407.55v-.13L411.66,81a1.67,1.67,0,0,0,.47-.67,1.53,1.53,0,0,0,.07-.82V54.64a25.28,25.28,0,0,1,.19-3.69L398.6,85.52h-.16l-14.28-31.8c-.31-.8-.4-.85-.6-1.39V73.19a7.32,7.32,0,0,0,.67,4.07L390,84.89V85H374.73v-.13l5.75-7.65a7.35,7.35,0,0,0,.67-4v-23A4.41,4.41,0,0,0,380.2,47l-4.06-5.33v-.13h14.58l12.22,26.94L413.7,41.53H428v.13l-4,4.52a1.62,1.62,0,0,0-.53.68,1.68,1.68,0,0,0-.09.86V79.51A1.48,1.48,0,0,0,424,81Zm16-12.46v.13c0,7.89,4,11.06,8.76,11.06A9.92,9.92,0,0,0,458,74h.12c-1.64,7.8-6.42,11.49-13.56,11.49-7.72,0-15-4.7-15-15.6,0-11.45,7.29-16,15.35-16,6.49,0,13.4,3.1,13.4,13v1.59ZM440,67h9V65.4c0-8.11-1.66-10.27-4.15-10.27-3,0-4.87,3.23-4.87,11.87Z"/><path class="cls-2" d="M37.54,41.08a4.41,4.41,0,0,1,3.15,1.44c1.15.86,1.15,2.58.86,4a3.88,3.88,0,0,1-2,2.87,6.23,6.23,0,0,1-2.88.86V55.7L39.26,58l-2.59,2v7.75A14.25,14.25,0,0,0,41,62.61l.29-.57a12.14,12.14,0,0,1-1.15,5.46,8.74,8.74,0,0,1-4,4.59,12.13,12.13,0,0,1-8,1.43,12.6,12.6,0,0,1-7.76-5.45,12.35,12.35,0,0,1-2-7.18,13.29,13.29,0,0,1,8.33-11.2,3.09,3.09,0,0,1,1.72-.29,2.64,2.64,0,0,0-1.43.87,8.52,8.52,0,0,0-3.16,4l8.61-3.74V62.61l-6.89,3.45c.86,1.15,3.16,2.87,5.17,2.87a7.35,7.35,0,0,0,5.74-1.15V60L33.6,58l2.87-2.3V50.27a42.57,42.57,0,0,1-4.3-1.15c-1.73-.29-6.9-1.72-7.47-1.72a2.67,2.67,0,0,0-2.59.29A2.23,2.23,0,0,0,21.45,50,1.5,1.5,0,0,0,22,51.13a2.32,2.32,0,0,1-.85-.29,3.85,3.85,0,0,1-1.73-3.15,5.24,5.24,0,0,1,2.3-4.6A5.5,5.5,0,0,1,26,41.94c2.58.29,6,1.73,9.19,2.59a3.34,3.34,0,0,0,2.87-.29c.29-.29,1.15-.86.57-1.72-.86-1.15-2-1.15-3.15-1.44A2.4,2.4,0,0,1,37.54,41.08ZM27.2,64.91V53.14l-3.45,1.72a13.53,13.53,0,0,0-.86,4.88,14.82,14.82,0,0,0,2.3,6ZM70.85,52.57s-2.88,1.72-4.6,2.87l-4,2v11.2L60.51,69.8l.28.29,1.44-1.15,4.88,4.3,8.62-6.6-.29-.29-4.6,3.74-4-3.74V65.2l7.76-5.74Zm0,9.19-4,2.87V55.15ZM48.74,77.55a10.84,10.84,0,0,0,5.45-.86,7.49,7.49,0,0,0,3.73-6.89l.29-4V56.87l1.44-1.14v-.29l-1.73,1.15-3.73-4-4.88,4V42.52l-6,4.59c.28.29,1.15.29,1.15,1.73V68.65l-2.59,1.72.29.29,1.15-.86L46.72,73l5.46-4.31-.29-.29-1.15,1.15-1.43-1.44v-11l1.43-1.43,2.59,2.87v9.47c0,2.59,0,5.75-1.44,7.18A5.58,5.58,0,0,1,48.74,77.55ZM86.35,76.4c-2.29-.28-3.16-1.43-3.16-2.58,0-.58.87-2,2-2,1.43-.29,2.58.28,3.73,1.72l5.17-5.74H93.8l-1.44,1.43a8.46,8.46,0,0,0-5.16-2.87v-17l12.92,23.83a1.23,1.23,0,0,0,.86.29.29.29,0,0,0,.29-.27V49.41A12.29,12.29,0,0,0,104.73,48a4.75,4.75,0,0,0,1.15-5.74,3,3,0,0,1-2.58,2.58,5.07,5.07,0,0,1-3.45-1.72L95,48.83l.29.29,1.43-1.72a6.55,6.55,0,0,0,4.31,2V63.19L91.24,45.67c-.86-1.43-2-2.87-4.31-2.87a4.61,4.61,0,0,0-4.31,4,5.4,5.4,0,0,0,0,2.59s.29-2.3,1.73-2.3,2,1.15,2.58,2v5.17c-1.43,0-4.88,0-4.88,3.73a5.37,5.37,0,0,0,1.44,3.16,3.31,3.31,0,0,0,1.72.58A1.61,1.61,0,0,1,84.35,60c.29-1.15,2.58-1.15,2.58-.86v7.18c-1.15,0-4.31,0-6,2.87a4.8,4.8,0,0,0,.29,5.17A4.7,4.7,0,0,0,86.35,76.4Zm27.57-23.83s-2.58,1.72-4.59,2.87l-4,2v11.2l-1.72,1.15.29.29,1.72-1.15,4.6,4.3,8.61-6.6-.29-.29L114,70.08l-3.74-3.74V65.2l7.47-5.74Zm0,9.19-3.73,2.87V55.15Zm11.77,11.48-4.3-3.44-1.73,1.43-.28-.28,2-1.44V60c0-4-3.74-2.87-3.45-7.18,0-1.72,1.72-3.16,2.87-3.73a7.5,7.5,0,0,1,2-.29,2.59,2.59,0,0,0-1.43,2.59c.57,2.3,4.59,2.3,4.88,5.45V67.78l2.87,2.3.86-.57V57.73l-1.72-1.43,4-3.74L136,56l-1.43,1.44V67.78l3.73,2.87.57-.28V57.73l-1.72-1.43,4-3.74,4,3.16,1.44-1.44.28.29-3.44,3.16V67.78l-8.9,5.46L130,69.79ZM306.61,52.57s-2.88,1.72-4.6,2.87l-4,2v11.2l-1.72,1.15.29.29L298,68.94l4.88,4.3,8.62-6.6-.29-.29-4.59,3.74-4-3.74V65.2l7.75-5.74Zm0,9.19-4,2.87V55.15ZM267,57.45h.28l1.44-1.15,2.3,2.58v9.19l-1.15.87,3.73,4.3,3.73-3.73-1.43-1.72V56.87l.86-.86,2.58,3.16v9.19l-.86.86L281.91,73l3.73-3.45-1.43-1.44V56.87l.86-.86,2.87,3.16v8.9l-.86.87,3.73,4.3L296,68.36l-.29-.29-1.14,1.15-2-2V56.87l1.72-1.43v-.29l-2,1.44-3.45-3.74L284,56.59l-3.45-3.74-4.88,3.74-3.44-3.74Z"/><path class="cls-2" d="M256.64,57.16,258.07,56l2,2.59V68.94l-1.44,1.43.29.29,1.43-1.44,3.45,4,4.88-4.3-.29-.29L267,69.8l-2-2.3V57.16l1.72-1.43v-.29L265,56.87l-3.45-4Zm1.43-8.9,3.45-3.16,3.16,3.16L261,51.71Z"/><path class="cls-2" d="M252.91,41.08a5,5,0,0,1,3.44,1.44,4.74,4.74,0,0,1,.86,4,4.86,4.86,0,0,1-2,2.87,6.19,6.19,0,0,1-2.87.86V55.7l2.58,2.3-2.58,2v7.75a14.38,14.38,0,0,0,4.31-5.17l.29-.57a12.14,12.14,0,0,1-1.15,5.46,10.25,10.25,0,0,1-4,4.59,11.36,11.36,0,0,1-15.63-3.71l-.17-.29a12.35,12.35,0,0,1-2-7.18c0-5.17,4-9.48,8.33-11.2A3,3,0,0,1,244,49.4c-.58,0-.87.29-1.44.87a8.65,8.65,0,0,0-3.16,4l8.6-3.72V62.61l-6.9,3.45c.86,1.15,3.16,2.87,5.17,2.87a6.93,6.93,0,0,0,5.46-1.15V60l-2.59-2,2.59-2.3V50.27c-1.44-.29-3.16-.86-4.31-1.15-1.44-.29-6.61-1.72-7.47-1.72a2.21,2.21,0,0,0-2.29.29,3.23,3.23,0,0,0-.87,2.29,4.06,4.06,0,0,0,.87,1.15,2.24,2.24,0,0,1-.87-.29,3.88,3.88,0,0,1-1.72-3.15,5,5,0,0,1,2-4.6,6.5,6.5,0,0,1,4.6-1.15c2.58.29,6,1.73,8.9,2.59,1.43.28,2.3.28,3.16-.29a1.23,1.23,0,0,0,.28-1.72h0c-.57-1.15-1.72-1.15-2.87-1.44A1.8,1.8,0,0,1,252.91,41.08Zm-10,23.83V53.14l-3.45,1.72a8.75,8.75,0,0,0-.86,4.88,11.58,11.58,0,0,0,2.3,6Zm72.94,9.77c-.58.29-2.88-.29-3.45-2.87s1.15-4,3.73-6.9L313,62.33V56.87a23,23,0,0,0,4-2l3.45-2.29s1.43,1.72,2.87,1.43c2.3-.28,2.3-2,2-2.29.58.57,1.44,2.58-2.58,7.46l3.45,2.59v6.89a56.69,56.69,0,0,0-7.47,4.59s-2-2.58-3.74-1.43c-1.45.85-.88,2.28.85,2.86ZM313,69.51a5,5,0,0,1,4.89-2.3,5.25,5.25,0,0,1,3.73,3.45V63.77l-2-1.73c-2.07,2.3-6.09,5.46-6.67,7.47Zm4.6-14.65v5.46L319.24,62s4-3.16,5.46-6.31c0,0-1.72,2.58-4.31,1.72a5,5,0,0,1-2.87-2.55ZM192,57.16,193.46,56h.29l-1.43,1.44V68.36s-2.88,1.44-4.6,2.59l-4,2.29-5.17-4.3-1.15,1.14h-.28l1.43-1.43V56.87a34.36,34.36,0,0,0,4.31-2c1.72-1.14,3.73-2.29,3.73-2.29Zm-8.61,9.77,4,3.73V58.88l-4-3.73ZM202.08,56l3.16-3.16a3.52,3.52,0,0,0,.86.58,2.17,2.17,0,0,0,2,.29c.57-.29.57-.58,1.15-.87,0,2.59-1.15,4.31-2.59,4.89-.86.28-2.58.86-4.59-1.44V68.07l2.3,1.73,1.43-1.15h.29l-5.17,4.59-4-3.73L195.48,71l-.29-.29,2-2v-10l-1.44-2.29-1.43,1.15H194l5.17-4.6Zm13.5,5.17,5.74-8.61a4.87,4.87,0,0,0,2.3,1.15c1.72.57,3.44-1.15,3.44-1.15-.29,2.29-1.43,4.88-4,5.17-2,.28-4-1.44-4-1.44l-.29.86,8,12.35,1.72-1.44.28.29L223,73.24Z"/><path class="cls-2" d="M210.69,49.69c0-2-.86-3.15-2-3.15l6.61-4.31V67.79l1.7,1.72,1.15-1.15.29.29-5.17,4.59-3.45-3.44-1.44,1.43L208.1,71l2.58-2.3Zm-54-.57c0-1.72-.86-2.58-2-2.58-1.73-.29-2,2.29-2,2.29a4.35,4.35,0,0,1,1.14-3.44,5.15,5.15,0,0,1,4.89-1.72,4.19,4.19,0,0,1,3.44,4.3V71.81a5.92,5.92,0,0,0,1.44.28,5,5,0,0,0,1.43.29V43.66h.29v4l5.17-4.3,4,3.44,1.72-1.43h.29l-2,1.72V69.22A4,4,0,0,1,172.79,73c-2.87,2-6.61-.29-10-.57-2.3-.58-6-.86-7.18,1.43a2.12,2.12,0,0,0,.86,2.59c2.3,1.43,12.06-2.59,15.51-.86,3.16,1.43,3.16,3.44,2.58,5.17C173.7,83.63,170,84.2,170,84.2s2-1.15,1.43-2.87c-.29-.86-.86-1.15-2.87-.86-4.31.58-9.19,2.58-12.63,1.15A5.2,5.2,0,0,1,153,76.4c0-3.16,3.74-4.31,3.74-4.31V60.61a2.36,2.36,0,0,0-2.59.57,1.52,1.52,0,0,0,.8,2l.06,0A3.51,3.51,0,0,1,152.69,62a3.69,3.69,0,0,1,0-4.3c.86-1.44,2.29-1.73,4-1.73Zm8.61,23.55a3.36,3.36,0,0,0,2.59-.58A2.38,2.38,0,0,0,169,69.8V60.89a2.11,2.11,0,0,0-1.72-1.15,2.91,2.91,0,0,0-2,1.15ZM169,49.12l-2.3-2L165.3,48V56.3a3.17,3.17,0,0,0,2,.86A2.17,2.17,0,0,0,169,56.3Zm0,7.75a2.52,2.52,0,0,1-1.73.58,3.91,3.91,0,0,1-2-.58v3.45a3.17,3.17,0,0,1,2-.86,2.17,2.17,0,0,1,1.73.86Zm36.18,24.42c0-2,0-2-.86-2.3h-.29V78.7h7.47c0,.29.28,1.43.28,2,0,.29-.28.29-.57.29-.29-.86-.29-1.44-1.15-1.72h-2.87c-.58,0-.58,0-.58.57v3.44c0,.29,0,.29.58.29h2.58a1,1,0,0,0,.29-.57v-.58c.29-.29.58-.29.58,0v3.16c0,.29-.29.29-.58,0V85a.61.61,0,0,0-.57-.58c-.29,0-.58-.29-1.15-.29h-1.15c-.58,0-.58.29-.58.58V87c0,1.15,0,1.72.29,2a7.11,7.11,0,0,0,2,.29c1.44,0,2,0,2.3-.29a15.27,15.27,0,0,0,1.15-1.73.29.29,0,0,1,.29.27v0a6.55,6.55,0,0,1-.58,2.3h-8.3v-.58h.58c.86,0,.86-.28.86-2Zm9.19,2.86a1.52,1.52,0,0,0-1.15-.57H213V83h3.16v.58h-.29c-.57,0-.57.29-.28.57l.86,1.15a.29.29,0,0,0,.27.29h0a14.79,14.79,0,0,0,.86-1.44c.29-.28.29-.57,0-.57h-.28V83h2.58v.58h-.29a1,1,0,0,0-.86.29,18.66,18.66,0,0,0-1.43,2c-.29.28-.29.28,0,.57l1.43,2.3c.29.57.58.57,1.15.57h.29v.58h-3.45v-.58h.58c.57,0,.57,0,.28-.28l-.86-1.44c-.28-.29-.28-.29-.28-.57-.29.28-.29.28-.29.57l-.86,1.15c-.29.57-.29.57,0,.57h.29c.28.29.28.58,0,.58h-2.3c-.29,0-.29-.29-.29-.58h.58c.28,0,.57,0,.86-.57.28-.29,1.15-1.44,1.43-1.72,0-.29.29-.29,0-.58Zm8.33,1.15c0-.57,0-.86.28-1.15a1.71,1.71,0,0,1,1.44-.57c1.43,0,2.3,1.44,2.3,2.87,0,1.72-.87,3.16-2.3,3.16a2.2,2.2,0,0,1-1.15-.57c-.29-.29-.57-.29-.57-.87Zm-1.15,6.9c0,1.14,0,1.43-.58,1.43l-.57.29a.29.29,0,0,0,.27.29h3.46v-.29l-.86-.29c-.58,0-.58-.29-.58-1.43V90.47a1,1,0,0,1,.29-.57c.29,0,.58.29.86.29a4.08,4.08,0,0,0,4.31-3.84,3.68,3.68,0,0,0,0-.47A2.72,2.72,0,0,0,225.66,83a1.71,1.71,0,0,0-.32,0,6.09,6.09,0,0,0-2.3.57h-.29v-.86a9.87,9.87,0,0,0-1.72.86v.29c.57.29.57.29.57,1.15Zm9.2-7.2h-.28a2.15,2.15,0,0,1,2-1.73,1.06,1.06,0,0,1,1.15,1,.61.61,0,0,1,0,.19v.29c-.29.29-.58.29-1.73.29Zm3.16.57c.58,0,.86,0,.86-.29.29,0,.29,0,.29-.28a2.33,2.33,0,0,0-2.58-2c-2,0-3.16,1.73-3.16,3.74a3.47,3.47,0,0,0,.58,2.3,3.66,3.66,0,0,0,2.58,1.15,3.07,3.07,0,0,0,2.58-1.73l-.29-.29a1.7,1.7,0,0,1-1.72.87c-1.72,0-2.58-1.44-2.58-3.16,0-.29,0-.29.28-.29Zm7.47-2.3c.29,0,.29.29.29.58a1,1,0,0,1-.29.57h-.29a2,2,0,0,0-1.72-.86A2.35,2.35,0,0,0,237.1,86a1.21,1.21,0,0,0,0,.19A2.64,2.64,0,0,0,239.52,89h.18c1.14,0,1.72-.29,2-.86a.27.27,0,0,1,.28.26v0a3.16,3.16,0,0,1-2.87,1.73,3.31,3.31,0,0,1-2.3-.86A3.55,3.55,0,0,1,236,86.7c0-2,1.15-3.73,4-3.73.32,0,1.18,0,1.47.32Zm3.73.58c-.28,0-.28,0-.28.28v3.16c0,1.15,0,2,1.14,2h.29a1.06,1.06,0,0,0,.58-.28s.28.28,0,.28a2.43,2.43,0,0,1-1.73.87c-1.43,0-1.72-.87-1.72-2V84.44c0-.57,0-.57-.29-.57h-.57v-.29c.57-.29.86-.58,1.15-.58a1.52,1.52,0,0,0,.57-1.15c.29,0,.29,0,.58.29v.58c0,.28,0,.28.28.28h1.73c.28.29.28.87,0,.87Zm9.19,0c-.29,0-.29,0-.29.28v3.16c0,1.15,0,2,1.15,2h.58l.28-.28a.29.29,0,0,1,.29.27h0a2.45,2.45,0,0,1-1.72.87c-1.43,0-1.72-.87-1.72-2V84.44c0-.57,0-.57-.29-.57H252s-.28-.29,0-.29a4.19,4.19,0,0,1,.86-.58,3.62,3.62,0,0,0,.86-1.15.29.29,0,0,1,.29.27v.6c0,.28,0,.28.29.28h2v.87Zm3.74-3.74c0-.86,0-.86-.58-1.15l-.29-.28v-.29a7.29,7.29,0,0,0,2-.58v6a3.21,3.21,0,0,1,2.3-.86c1.72,0,2.3.86,2.3,2v2.87c0,1.15,0,1.43.57,1.43h.29c.29.29.29.58,0,.58h-3.16v-.58h.29c.57,0,.57-.28.57-1.43v-2.3c0-1.15-.28-2-1.43-2a2.21,2.21,0,0,0-1.44.57c-.29.29-.29.29-.29.87v2.87c0,1.15,0,1.43.58,1.43h.29c.28.29.28.58,0,.58h-3.16v-.58h.29c.86,0,.86-.28.86-1.43V80.11ZM267.27,85H267a2.15,2.15,0,0,1,2-1.73,1.06,1.06,0,0,1,1.15,1,.61.61,0,0,1,0,.19v.29c-.29.29-.58.29-1.73.29Zm3.15.57c.58,0,.87,0,.87-.29.28,0,.28,0,.28-.28A2.32,2.32,0,0,0,269,83c-2,0-3.16,1.73-3.16,3.74a3.53,3.53,0,0,0,.57,2.3A3.7,3.7,0,0,0,269,90.19a3.07,3.07,0,0,0,2.58-1.73l-.28-.29a1.72,1.72,0,0,1-1.73.87c-1.72,0-2.58-1.44-2.58-3.16,0-.29,0-.29.29-.29ZM275.59,79v-.3h3.74c.28,0,.28.28,0,.28H279a1,1,0,0,0-.58.29,7.61,7.61,0,0,0,.86,2.3c.87,2,2,4.31,2.88,6.32.57-.86.86-1.73,1.43-2.59a1.28,1.28,0,0,1,.29-.86l-.29-.28-1.72-4.31c-.29-.29-.58-.86-1.15-.86h-.29c-.28,0-.28-.29,0-.29h3.45c.29,0,.29.29,0,.29h-.29c-.57,0-.57.29-.29.86A33.55,33.55,0,0,1,284.45,83a9,9,0,0,1,1.15-2.3c.58-1.43.29-1.72,0-1.72H285c-.29-.29,0-.29,0-.29h3.16s.28.29,0,.29h-.58c-.57,0-.86.86-1.15,1.43A28.4,28.4,0,0,0,285,83.29v.87c.57,1.14,1.14,2.58,1.72,3.73.57-1.15.86-2.3,1.44-3.45.28-.86,1.43-3.15,1.43-3.44a5.82,5.82,0,0,0,.58-1.72,1,1,0,0,0-.58-.29H289V78.7h3.16c.29,0,.29.29,0,.29H292c-.87,0-.87.57-2,2.87l-1.15,2.87a30.26,30.26,0,0,0-2,5.46h-.58a43.23,43.23,0,0,0-2-4.89,24.75,24.75,0,0,0-2,4.89h-.58a29.71,29.71,0,0,0-1.14-2.88c-1.15-2.29-2-4.59-3.16-7.18-.29-.57-.57-1.14-1.15-1.14Zm21,7.76c0,1.15-.29,2.87-1.73,2.87-1.72,0-2.3-1.72-2.3-3.16,0-2,.87-3.16,2-3.16,1.44,0,2,2,2,3.43Zm-2-3.74a3.48,3.48,0,0,0-3.45,3.45,3.39,3.39,0,0,0,3,3.72,2.82,2.82,0,0,0,.41,0,3.56,3.56,0,0,0,3.41-3.7v-.06A3.32,3.32,0,0,0,294.82,83h-.27Zm5.74,2c0-.87,0-.87-.29-1.15h-.29v-.29c.29-.29,1.44-.58,1.73-.86v1.15h.28a2.48,2.48,0,0,1,1.73-.86c.57,0,.86.28.86.57a.91.91,0,0,1-.86.86.29.29,0,0,1-.29-.27v0c-.29,0-.58-.28-.86-.28s-.29.28-.58.57a3,3,0,0,0-.28,1.15v2.3c0,1.15.28,1.43.86,1.43h.57v.58h-3.44c-.29,0-.29-.29,0-.58h.28c.58,0,.58-.28.58-1.43Zm6.6,2.87c0,1.15,0,1.43.58,1.43H308v.58h-3.45v-.58h.58c.57,0,.57-.28.57-1.43V80.13c0-.86,0-.86-.57-1.15V78.7c-.29,0-.29-.29,0-.29a5.82,5.82,0,0,0,1.72-.58V87.89Zm7.47.28c0,.29,0,.58-.29.58a2.2,2.2,0,0,1-1.15.57c-1.72,0-2.58-1.43-2.58-3.16,0-1.43.86-2.87,2.3-2.87.57,0,1.15.58,1.43.86,0,.29.29.29.29.58Zm1.15-8.32v-2a7,7,0,0,1-2,.57v.29l.28.29c.58.29.58.29.58,1.14v2.59c0,.29,0,.29-.29.29H313a3.7,3.7,0,0,0-4,3.39c0,.11,0,.23,0,.34a3.46,3.46,0,0,0,3.16,3.45,2.62,2.62,0,0,0,2-.86h.29v.86a6.84,6.84,0,0,0,2.3-.58c.29,0,.29-.28,0-.57a.88.88,0,0,1-.58.29c-.57,0-.57-.58-.57-2Zm5.74-.58a.29.29,0,0,1,.27-.29h0a1.06,1.06,0,0,1,1.15,1,.61.61,0,0,1,0,.19c0,.58-.29,1.15-.87,1.15s-.57,0-.57-.29Zm-.86,3.16c0,.86,0,.86-.29.86l-.28.29h2l-.28-.29c-.29,0-.29,0-.29-.86v-.57c0-.29,0-.29.29-.29h.28a4.22,4.22,0,0,0,.86,1.15,1.48,1.48,0,0,0,1.44,1.15.29.29,0,0,0,.29-.27v0a.29.29,0,0,1-.29-.27v0c-.58-.29-.86-.86-1.44-1.72v-.29c.29-.29.86-.57.86-1.15,0-1.15-1.14-1.43-1.72-1.43h-2V79h.29c.29,0,.29.29.29,1.15v2.28Zm1.43,3.16a4.48,4.48,0,0,0,4.6-4.3A4.31,4.31,0,0,0,322.17,77h-.31a4.07,4.07,0,0,0-4.3,3.82,4.17,4.17,0,0,0,0,.5,4.22,4.22,0,0,0,4.14,4.3h.16Zm-3.73-4.3a3.88,3.88,0,0,1,3.73-4A3.71,3.71,0,0,1,325.61,81c0,.11,0,.22,0,.33A3.62,3.62,0,0,1,322.05,85h-.23a3.81,3.81,0,0,1-3.73-3.71Z"/><path class="cls-2" d="M916.82,91.71V33.29h-39V91.71Zm40.58,0V33.29H919.6V91.71Zm41.73,0V33.29h-39V91.71Z"/><path class="cls-3" d="M879.72,49.17V62H881c.69-7.89,4.29-11.13,7.88-11.13h3.83V88.12h-5.22v1.74h19.59V88.12h-5.21V50.91h3.82c3.6,0,7.19,3.24,7.88,11.13h1.28V49.17Zm76,40.69V76.53H954.5c-.7,8.35-4.29,11.59-7.89,11.59H935.49V50.91h5.21V49.17H921.11v1.74h5.22V88.12h-5.22v1.74ZM995.6,48.47h-1.27l-2.67,2.78a14.47,14.47,0,0,0-9.85-3.36c-6.26,0-18.67,4.41-19.13,20.64-.41,14.48,11.13,21.33,18.78,21.33a17.07,17.07,0,0,0,10.2-3.48l2.67,2.55h1.27V77.8h-1.27c-.47,2.44-4.52,10.44-12.17,10.44S971.89,84,971.66,68.3,975.25,49.4,982,49.4c5.57,0,10.09,3.48,12.41,10.2h1.27Z"/><path class="cls-2" d="M695.72,88.6c-5.66,0-11.06-3.17-14.56-7.49a27.91,27.91,0,0,1-5.93-17.55,27.89,27.89,0,0,1,5.47-16.92c3.64-4.72,9.12-8.1,15.21-8.1,5.6,0,11,3.21,14.41,7.47a28.88,28.88,0,0,1,.48,34.47C707.19,85.17,701.75,88.6,695.72,88.6Zm-56.79-49h17v.48h-4.18l12.7,34.78,10.72-34.78H671V39.6h9.18v.48H676.1L661,88.14,643.41,40.06h-4.48Zm114.61-.84v16.7h-.39a29.85,29.85,0,0,0-3.5-9.39c-2.1-3.4-5.44-7.21-9.79-7.21-10,0-10.92,17.93-10.92,24.78,0,6.12.49,12.43,2.71,18.17,1.56,4,3.81,6,8,6a10.31,10.31,0,0,0,8.62-4.56,4.51,4.51,0,0,0,.49-2.45V67.86h-4.37v-.5h16v.5h-3.75V87.18h-.33A5,5,0,0,0,752,84.57a8.25,8.25,0,0,0-3.93,1.16l-1.09.59a18,18,0,0,1-7.5,1.87c-12.42,0-19-13.24-19-24.23,0-8,3.06-16.62,9.57-21.64a17,17,0,0,1,10.22-3.92,11.7,11.7,0,0,1,4.28,1l1,.39a10.72,10.72,0,0,0,3.61.82c1.52,0,2.88-1,4.06-1.87Zm4.77.84h17.08v.49h-4.53V77.14c0,5.81,6,9.34,11.21,9.34,5.63,0,10.38-3.92,10.38-9.67V40.06h-5.36v-.49h44.07v17.2h-.33c-.51-4.55-1.38-9.22-4.51-12.77s-7.47-3.94-11.9-3.94h-4.77V62.18a27.42,27.42,0,0,0,3,.17c6,0,7.56-4.13,7.82-9.23h.44v19.4h-.44c-.75-4.64-2.8-9.61-8.24-9.61-.86,0-1.7.06-2.55.13V86.69h7.15a14.59,14.59,0,0,0,10-4.2,15.33,15.33,0,0,0,4.34-8.17,46.2,46.2,0,0,0,.52-5.25h.38V87.18H797.63v-.49h4V40.06h-8.46V77c0,7.62-7.25,11-14,11C771.45,88,763,84.22,763,75.44V40.06h-4.67Z"/><rect class="cls-4" width="1020" height="123"/></g></g></g></g></svg>